<?xml version="1.0" encoding="utf-8"?>
<!-- Generator: Adobe Illustrator 23.0.3, SVG Export Plug-In . SVG Version: 6.00 Build 0)  -->
<svg version="1.1" id="Слой_1" xmlns="http://www.w3.org/2000/svg" xmlns:xlink="http://www.w3.org/1999/xlink" x="0px" y="0px"
	 viewBox="0 0 100 100" style="enable-background:new 0 0 150 150;" xml:space="preserve">
<style type="text/css">
	.st0{opacity:0.46;fill:#FFE3B4;}
	.st1{opacity:0.43;fill:#FFDB94;}
	.st2{opacity:0.5;fill:#FFCB78;}
	.st3{opacity:0.76;}
	.st4{clip-path:url(#SVGID_2_);}
	.st5{fill:#F0BC4E;}
	.st6{fill:#EBB246;}
	.st7{fill:#F09B4C;}
	.st8{fill:#EB7C46;}
	.st9{fill:#F0A34B;}
	.st10{fill:#EF9349;}
	.st11{fill:#ED8A49;}
	.st12{fill:#FFCD72;}
	.st13{fill:#FFCB78;}
</style>
<g>
	<circle class="st0" cx="75" cy="75" r="75"/>
	<circle class="st1" cx="75" cy="75" r="62.76"/>
	<circle class="st2" cx="75" cy="75" r="51.14"/>
	<g class="st3">
		<defs>
			<circle id="SVGID_1_" class="st3" cx="75" cy="75" r="39.65"/>
		</defs>
		<clipPath id="SVGID_2_">
			<use xlink:href="#SVGID_1_"  style="overflow:visible;"/>
		</clipPath>
		<g class="st4">
			<circle class="st5" cx="75.21" cy="74.49" r="39.96"/>
			<path class="st6" d="M47.73,61.49c9.06,2,17.36,6.63,24.87,12.08c7.51,5.45,14.36,11.76,21.55,17.62
				c4.1,3.34,8.41,6.58,13.4,8.35c0.61-1.13,1.22-2.25,1.83-3.38c0.14-0.26,0.28-0.52,0.31-0.81c0.07-0.65-0.43-1.21-0.9-1.67
				c-2.14-2.07-4.53-3.9-6.41-6.21c-2.56-3.14-4.07-7.01-6.46-10.28c-4.18-5.72-10.78-9.2-17.48-11.49s-13.72-3.59-20.38-6.02
				c-4.38-1.6-8.56-3.67-12.79-5.61c-1.67-0.77-3.87-1.44-5.17-0.14c-1.4,1.4-2.07,4.76-0.03,5.75
				C42.29,60.78,45.33,60.97,47.73,61.49z"/>
			<path class="st7" d="M63.2,51.98c4.95,1.49,9.94,3,14.48,5.46c9.34,5.04,16.14,13.63,24.18,20.55c4.28,3.68,8.95,6.92,13.9,9.63
				c0.44-0.9,0.81-1.84,1.09-2.8c0.07-0.24,0.14-0.5,0.07-0.74c-0.09-0.32-0.39-0.53-0.67-0.72c-2.01-1.4-3.61-3.29-5.18-5.17
				c-4.14-4.94-8.31-9.91-11.42-15.56c-2.65-4.82-4.49-10.05-7.07-14.92s-6.07-9.49-10.99-11.96c-1.31-0.66-2.71-1.15-4.16-1.31
				c-1.43-0.15-2.87,0.02-4.3,0.23c-4.88,0.7-9.75,1.78-14.25,3.81c-2.1,0.95-4.11,2.11-5.95,3.5c-0.95,0.72-7.3,2.61-7.13,3.94
				c0.16,1.28,8.05,3.24,9.21,3.59C57.76,50.34,60.48,51.16,63.2,51.98z"/>
			<path class="st8" d="M140.83,138.37c9.42,2.08,18.04,6.89,25.85,12.56c7.81,5.67,14.92,12.22,22.4,18.31
				c3.99,3.25,8.16,6.41,12.93,8.3c-2.14,2.57-4.57,4.85-7.24,6.8c0.07-0.09,0.14-0.17,0.21-0.25c-1.61-1.7-3.9-2.53-5.96-3.66
				c-7.95-4.38-12.15-13.19-17.51-20.51c-1.12-1.54-2.34-3.04-3.89-4.15c-1.37-0.98-2.96-1.61-4.56-2.11
				c-5.44-1.67-11.22-1.81-16.86-2.56c-5.33-0.71-10.81-2.09-14.96-5.47c0.31-1.94,0.76-3.89,1.36-5.82c0.32-1.01,0.67-2,1.06-2.97
				C135.87,137.67,138.61,137.88,140.83,138.37z"/>
			<path class="st9" d="M101.4,77.39c4.09,3.52,8.54,6.63,13.25,9.26c-1.04,3.32-2.47,6.4-4.23,9.22c-0.13-0.49-0.52-0.93-0.9-1.29
				c-2.23-2.15-4.71-4.06-6.67-6.46c-2.66-3.26-4.23-7.29-6.72-10.69c-4.35-5.94-11.2-9.56-18.17-11.94
				c-6.97-2.38-14.26-3.73-21.18-6.25c-4.55-1.66-8.9-3.81-13.3-5.83c-0.38-0.17-0.78-0.34-1.19-0.48c1.55-2.43,3.33-4.66,5.32-6.66
				c0,0.03,0,0.05,0,0.08c0.16,1.28,5.79,2.23,6.94,2.58c2.72,0.82,5.44,1.64,8.16,2.46c4.95,1.49,9.94,3,14.48,5.46
				C86.56,61.87,93.36,70.47,101.4,77.39z"/>
			<path class="st10" d="M109.87,78.21c-4.14-4.94-8.31-9.91-11.42-15.56c-2.65-4.82-4.49-10.05-7.07-14.92s-6.07-9.49-10.99-11.96
				c-0.53-0.27-1.08-0.51-1.64-0.71c2.92,0.24,5.86,0.8,8.77,1.71c19.91,6.23,31.54,26.51,27.41,46.52
				C112.98,81.91,111.41,80.05,109.87,78.21z"/>
			<path class="st5" d="M51.57,83.24c3.38,0.6,6.78,1.07,10.17,1.66c2.09,0.36,4.19,0.77,6.11,1.66c1.87,0.86,3.52,2.13,5.14,3.4
				c1.68,1.3,3.36,2.61,4.96,4.01c6.13,5.38,11.34,12.37,18.79,15.44c-9.6,5.96-21.64,7.86-33.27,4.22
				c-16.15-5.05-26.85-19.34-28.11-35.23C40.15,81.18,46.23,82.29,51.57,83.24z"/>
			<path class="st11" d="M108.9,63.75c-0.87-0.61-1.74-1.23-2.56-1.91c-3.42-2.86-5.73-6.82-7.63-10.86s-3.46-8.24-5.72-12.09
				c5.95,3.09,10.49,8.29,14.87,13.36c0.87,1.01,1.75,2.02,2.51,3.12c1.58,2.26,2.65,4.87,3.15,7.58c0.17,0.92,0.71,2.81-0.59,3.17
				C111.81,66.43,109.78,64.37,108.9,63.75z"/>
			<path class="st12" d="M54.3,100.76c1.77,0.32,3.55,0.65,5.2,1.37c4.03,1.77,6.66,5.63,9.81,8.7c2.87,2.8,6.29,5.04,10,6.53
				c-1.83,0.16-3.68-0.12-5.5-0.41c-3.49-0.55-6.98-1.1-10.46-1.64c-3.35-0.53-6.7-1.05-9.98-1.91c-1.37-0.36-2.74-0.78-3.97-1.48
				c-2.49-1.41-4.22-3.82-5.88-6.15c-0.98-1.38-5.07-7.53-1.35-7.21C46.21,98.92,50.31,100.04,54.3,100.76z"/>
			<path class="st9" d="M35.21,89.07c2.85,2.87,6.54,4.78,10.35,6.13c3.81,1.35,7.78,2.2,11.68,3.26c2.2,0.6,4.41,1.27,6.43,2.33
				c1.3,0.68,2.52,1.51,3.73,2.34c3.52,2.41,7.04,4.81,10.56,7.22c3.56,2.44,7.28,4.94,11.55,5.61c1.06-1.68,2.35-3.2,3.83-4.52
				c-1.95-1.31-4.4-1.62-6.48-2.69c-1.04-0.53-1.97-1.24-2.9-1.95c-3.49-2.66-6.99-5.34-9.97-8.57c-1.79-1.94-3.41-4.11-5.61-5.58
				c-1.49-0.99-3.18-1.63-4.88-2.19c-3.66-1.2-7.43-2.07-11.25-2.61c-3.18-0.45-6.41-0.66-9.54-1.38c-3.13-0.72-6.23-2-8.52-4.26
				c-0.5,3.18,0.09,6.53,1.66,9.35"/>
			<path class="st13" d="M61.86,85.14c2.09,0.36,4.19,0.77,6.11,1.66c1.87,0.86,3.52,2.13,5.14,3.4c1.68,1.3,3.36,2.61,4.96,4.01
				c6.53,5.73,12.02,13.3,20.28,15.99c0.18-0.92,0.61-1.79,1.23-2.49c-1.61-1.7-3.9-2.53-5.96-3.66
				c-7.95-4.38-12.15-13.19-17.51-20.51c-1.12-1.54-2.34-3.04-3.89-4.15c-1.37-0.98-2.96-1.61-4.56-2.11
				c-5.44-1.67-11.22-1.81-16.86-2.56c-5.64-0.75-11.46-2.26-15.68-6.08c-0.88-0.8-1.73-1.81-1.74-3c0.01,0.91-0.96,2.33-1.14,3.32
				c-0.23,1.2-0.27,2.43-0.15,3.64c0.21,2.02,0.73,4.34,2.49,5.5c4.92,3.21,11.43,4.4,17.1,5.4C55.07,84.07,58.47,84.55,61.86,85.14
				z"/>
		</g>
	</g>
</g>
</svg>
